<svg class="svg-icon" style="width: 1em;height: 1em;vertical-align: middle;fill: currentColor;overflow: hidden;" viewBox="0 0 1024 1024" version="1.1" xmlns="http://www.w3.org/2000/svg"><path d="M959.3 686.6c0 13.1-8.7 21.8-21.8 21.8-13.1 0-21.8-8.7-21.8-21.8V413.8c0-37.1-28.4-65.5-65.5-65.5H413.8c-37.1 0-65.5 28.4-65.5 65.5v436.4c0 37.1 28.4 65.5 65.5 65.5h436.4c37.1 0 65.5-28.4 65.5-65.5v-48c0-13.1 8.7-21.8 21.8-21.8 13.1 0 21.8 8.7 21.8 21.8v48c0 61.1-48 109.1-109.1 109.1H413.8c-61.1 0-109.1-48-109.1-109.1V413.8c0-61.1 48-109.1 109.1-109.1h436.4c61.1 0 109.1 48 109.1 109.1v272.8z m-240-484.5c0 13.1-8.7 21.8-21.8 21.8-13.1 0-21.8-8.7-21.8-21.8v-28.4c0-37.1-28.4-65.5-65.5-65.5H173.8c-37.1 0-65.5 28.4-65.5 65.5v436.4c0 37.1 28.4 65.5 65.5 65.5h34.9c13.1 0 21.8 8.7 21.8 21.8 0 13.1-8.7 21.8-21.8 21.8h-34.9c-61.1 0-109.1-48-109.1-109.1V173.8c0-61.1 48-109.1 109.1-109.1h436.4c61.1 0 109.1 48 109.1 109.1v28.3z m0 0" fill="#666666" /></svg>